<svg width="22" height="7" viewBox="0 0 22 7" fill="none" xmlns="http://www.w3.org/2000/svg">
<rect width="22" height="7" rx="2" fill="white"/>
<path d="M1.01093 3.52184C1.00489 2.14114 2.11928 1.01697 3.49998 1.01093C4.88067 1.00489 6.00485 2.11928 6.01088 3.49998C6.01692 4.88067 4.90254 6.00485 3.52184 6.01088C2.14114 6.01692 1.01697 4.90254 1.01093 3.52184Z" fill="black"/>
<path d="M5.11826 3.11557C5.13754 3.22248 5.14683 3.33179 5.14731 3.44055C5.14944 3.92732 4.97722 4.3396 4.67568 4.61958L4.67627 4.61958C4.4122 4.8653 4.04892 5.00857 3.61741 5.01046C3.01248 5.0131 2.45778 4.67455 2.18382 4.13547C1.95492 3.68437 1.95259 3.15175 2.17754 2.69867C2.44678 2.15663 2.99849 1.81324 3.60342 1.81059C4.00081 1.80415 4.38535 1.9518 4.67578 2.22214L4.22099 2.68092C4.0551 2.52409 3.83427 2.43922 3.60619 2.44375C3.18879 2.44557 2.83553 2.72872 2.71079 3.10846C2.64464 3.30746 2.64558 3.52262 2.71347 3.72103L2.71405 3.72103C2.84269 4.09907 3.19783 4.37912 3.61523 4.3773C3.83098 4.37636 4.01593 4.32029 4.15894 4.22207L4.15836 4.22207C4.32659 4.10964 4.44105 3.93335 4.47604 3.73449L3.61185 3.73827L3.60915 3.12217L5.11826 3.11557Z" fill="white"/>
<path d="M11 3.5C11 4.88071 9.88071 6 8.5 6C7.11929 6 6 4.88071 6 3.5C6 2.11929 7.11929 1 8.5 1C9.88071 1 11 2.11929 11 3.5Z" fill="black"/>
<path d="M10.1667 3.5C10.1667 4.42047 9.42048 5.16667 8.5 5.16667C7.57953 5.16667 6.83333 4.42047 6.83333 3.5C6.83333 2.57953 7.57953 1.83333 8.5 1.83333C9.42048 1.83333 10.1667 2.57953 10.1667 3.5Z" fill="white"/>
<path d="M9.33333 3.5C9.33333 3.96024 8.96024 4.33333 8.5 4.33333C8.03976 4.33333 7.66667 3.96024 7.66667 3.5C7.66667 3.03976 8.03976 2.66667 8.5 2.66667C8.96024 2.66667 9.33333 3.03976 9.33333 3.5Z" fill="black"/>
<path d="M21 3.5C21 4.88071 19.8807 6 18.5 6C17.1193 6 16 4.88071 16 3.5C16 2.11929 17.1193 1 18.5 1C19.8807 1 21 2.11929 21 3.5Z" fill="black"/>
<path d="M17 2H20V2.375H17V2Z" fill="white"/>
<path d="M18.2857 5L18.2857 2.375H18.7143V5H18.2857Z" fill="white"/>
<path d="M16 3.5C16 4.88071 14.8807 6 13.5 6C12.1193 6 11 4.88071 11 3.5C11 2.11929 12.1193 1 13.5 1C14.8807 1 16 2.11929 16 3.5Z" fill="black"/>
<path d="M13.5 1.625L15.0625 4.75H11.9375L13.5 1.625Z" fill="white"/>
<path d="M13.5 2.66667L14.3413 4.75H12.6587L13.5 2.66667Z" fill="black"/>
<path d="M12.8061 3.36111H14.1939V3.70833H12.8061V3.36111Z" fill="white"/>
</svg>
